<svg version="1.1" id="Layer_1" xmlns="http://www.w3.org/2000/svg" xmlns:xlink="http://www.w3.org/1999/xlink" x="0px" y="0px"
	 width="100%" viewBox="0 0 500 500" enable-background="new 0 0 500 500" xml:space="preserve">
<path fill="#E0DCDC" opacity="1.000000" stroke="none" 
	d="
M296.000000,501.000000 
	C197.333359,501.000000 99.166710,501.000000 1.000053,501.000000 
	C1.000035,334.333405 1.000035,167.666794 1.000018,1.000142 
	C167.666565,1.000095 334.333130,1.000095 500.999756,1.000047 
	C500.999847,167.666519 500.999847,334.333038 500.999939,500.999786 
	C432.833344,501.000000 364.666656,501.000000 296.000000,501.000000 
M310.766052,162.041061 
	C311.153442,161.157394 312.114258,159.955124 311.830475,159.444305 
	C310.488037,157.027908 308.805511,154.800491 307.214844,152.462601 
	C300.726471,154.827393 294.533691,157.084457 288.502930,159.282471 
	C288.619171,160.917130 288.711975,162.221741 287.971313,163.566895 
	C285.754242,163.542465 283.537140,163.518051 281.262939,162.980576 
	C280.965271,162.575500 280.667572,162.170425 280.299316,160.864410 
	C280.282928,155.926758 280.266541,150.989105 280.930145,146.150528 
	C282.374969,148.031265 283.819824,149.912003 285.476532,152.068542 
	C291.610046,149.776062 297.674530,147.509354 304.009186,145.141678 
	C301.962097,140.425110 300.333527,136.672714 298.693085,132.893066 
	C292.304169,135.302338 286.332581,137.554230 280.273224,138.897507 
	C280.273224,127.987076 280.273224,117.076653 280.273224,106.057655 
	C275.242035,106.057655 270.719818,106.057655 265.669373,106.057655 
	C265.669373,119.131042 265.669373,131.888443 264.876526,144.696991 
	C262.331055,145.224808 259.785553,145.752625 256.341705,146.170837 
	C249.991318,145.664001 243.640945,145.157166 237.266464,144.648407 
	C236.853271,146.534866 236.433228,148.452576 235.185043,150.136108 
	C233.756088,150.144714 232.327148,150.153305 230.863266,149.207672 
	C230.923782,147.212860 231.031418,145.218216 231.037735,143.223236 
	C231.132050,113.434792 201.836868,92.821388 173.772736,102.919739 
	C155.889313,109.354752 145.780136,124.584953 144.449768,145.745865 
	C142.973251,145.487030 141.496750,145.228210 139.852325,144.319672 
	C139.735291,143.889191 139.618271,143.458694 139.669357,142.148941 
	C140.124008,130.538971 144.012802,120.268379 151.445862,111.293198 
	C152.362167,110.186806 152.483902,108.422386 153.618073,106.977455 
	C155.096603,106.383247 156.608902,105.860664 158.047882,105.182503 
	C164.573181,102.107269 170.785568,97.779747 177.646851,96.120262 
	C195.453262,91.813606 210.949600,97.262436 224.311920,110.513680 
	C232.579819,119.631935 236.425720,130.572113 237.075714,142.661728 
	C246.225983,142.144562 259.541779,133.106400 262.429016,124.773239 
	C252.499405,133.219452 244.163742,128.256744 236.325882,123.266510 
	C237.866150,119.772774 239.708740,115.894371 241.300323,111.915558 
	C243.979126,105.218895 248.833389,101.078857 255.716599,99.258072 
	C258.355225,98.560089 261.052399,98.083435 263.837402,97.481163 
	C254.535095,92.279480 240.543579,94.646347 232.474319,102.430496 
	C229.881897,104.931335 226.778931,106.902954 223.892502,108.258568 
	C228.399246,98.647812 231.421600,88.804535 228.325699,77.549553 
	C227.164368,90.191483 218.251266,93.365273 208.131912,95.082039 
	C207.355072,92.717888 206.542114,90.364876 205.809311,87.987152 
	C204.502350,83.746628 201.697632,79.244896 202.326050,75.299461 
	C203.277740,69.324455 206.632431,63.732193 209.313766,57.870586 
	C209.226074,57.930698 209.138367,57.990807 208.329849,57.857155 
	C197.467377,62.403988 190.936615,72.207108 190.848480,83.781288 
	C190.825302,86.827797 190.279190,89.870323 189.973221,92.914673 
	C189.449417,92.927696 188.925613,92.940720 188.401810,92.953751 
	C185.409668,83.171768 180.145294,75.066299 171.321518,68.645599 
	C174.921448,83.407593 174.921448,83.407593 168.423355,95.070618 
	C164.907257,93.525764 161.507614,91.786797 157.941116,90.516228 
	C150.562546,87.887619 146.133347,82.729523 144.187134,75.293747 
	C143.549927,72.859261 143.103592,70.374817 142.488297,67.536476 
	C137.598251,78.092110 139.889984,91.118256 147.344025,98.839294 
	C149.622421,101.199295 151.159317,104.275131 152.284668,107.085350 
	C143.081970,102.592896 133.509781,100.660400 122.967918,102.987717 
	C135.390686,104.532021 138.501328,113.521942 140.300400,123.486588 
	C134.011292,125.435852 127.715218,128.894394 121.405533,128.919418 
	C115.084221,128.944489 108.749321,125.541565 103.180527,123.869408 
	C105.647324,131.588928 116.474297,139.955276 125.595901,140.328491 
	C129.391937,140.483841 133.173874,140.983932 136.957535,142.135788 
	C136.969330,142.403671 136.981110,142.671555 136.399155,143.299255 
	C134.648727,143.884659 132.898285,144.470062 130.329758,144.851761 
	C122.787300,144.851761 115.244843,144.851761 106.908325,144.851761 
	C111.071938,148.257706 114.603546,151.146637 117.812241,154.650848 
	C116.550674,156.629745 115.289108,158.608627 113.500877,160.859314 
	C110.929985,158.785187 108.291977,156.788300 105.800461,154.622849 
	C97.451691,147.366760 88.268112,144.798386 77.434837,148.522141 
	C72.502922,150.217392 67.207184,150.854233 62.140583,151.301804 
	C72.753868,140.727951 83.367935,130.154861 93.979897,119.579666 
	C96.541374,117.027054 98.785835,114.340881 97.123619,110.368019 
	C95.427094,106.313118 92.040573,105.689186 88.100594,105.705635 
	C68.622398,105.786957 49.143681,105.737022 29.665165,105.752602 
	C28.373880,105.753632 27.082722,105.914307 25.697136,106.007042 
	C25.697136,110.793121 25.697136,115.324783 25.697136,120.208572 
	C41.300083,120.208572 56.529377,120.208572 72.633057,120.208572 
	C70.999428,121.986115 69.971443,123.188759 68.856712,124.304756 
	C55.679455,137.496979 42.515305,150.702515 29.282106,163.838470 
	C26.366722,166.732422 24.457563,169.777405 25.531109,174.450226 
	C24.404957,175.419296 23.278805,176.388367 22.549641,177.015839 
	C31.456293,183.602325 40.084663,189.983017 47.961781,195.808167 
	C58.233269,189.925720 68.583199,183.998367 79.876411,178.007965 
	C85.743202,178.007965 91.610001,178.007965 97.537033,178.007965 
	C97.753517,175.371857 97.925644,173.275894 98.890266,171.120300 
	C105.216751,169.397522 111.543236,167.674744 118.110519,165.886383 
	C116.598488,163.922089 115.314880,162.254562 114.849236,160.198090 
	C117.211487,159.291641 119.573730,158.385193 122.507164,157.954468 
	C126.034904,163.083618 130.575958,165.333801 136.756073,163.005997 
	C137.206909,162.836197 137.732147,162.863892 138.854782,162.957520 
	C136.068832,169.034454 133.282883,175.111374 130.138885,180.541138 
	C129.478943,179.581863 128.686737,178.687012 128.182419,177.651917 
	C126.216934,173.617828 123.297447,173.092178 119.197784,174.393799 
	C113.342865,176.252701 107.297379,177.502975 101.369919,179.145401 
	C98.448563,179.954849 95.609406,181.060944 93.042587,181.928223 
	C98.736610,192.372391 104.122002,202.250443 109.613892,212.323837 
	C120.048759,208.271011 130.510895,204.207596 141.553268,199.918823 
	C139.598618,196.355133 137.785965,193.050385 136.442688,189.305557 
	C138.623978,187.822128 140.805267,186.338684 143.404953,185.409485 
	C144.712906,187.770554 146.020874,190.131607 147.220642,193.484711 
	C147.220642,198.116516 147.220642,202.748322 147.220642,207.380127 
	C149.341904,204.653610 150.433426,201.779083 151.909286,199.117691 
	C154.672745,194.134384 165.010391,191.040085 169.748199,194.316132 
	C170.331757,196.184402 170.915314,198.052689 170.691971,200.144104 
	C164.977539,201.666397 159.263107,203.188705 153.424118,204.744186 
	C157.167450,216.408600 160.689774,227.384369 164.368927,238.848755 
	C173.703049,234.509293 182.796234,230.281845 192.420227,225.807632 
	C190.192459,218.633682 188.095993,211.882538 185.858932,204.500885 
	C185.792648,204.295990 185.726379,204.091095 185.793030,203.301361 
	C185.716064,202.912735 185.639099,202.524109 185.699188,201.265900 
	C186.183746,198.513062 186.668304,195.760223 187.595215,193.005356 
	C187.595215,193.005356 188.037430,192.993820 188.420273,193.612228 
	C191.288055,199.365417 194.155853,205.118622 196.924271,211.700302 
	C197.754013,215.170242 198.583740,218.640182 199.606949,222.919250 
	C202.518326,221.311691 204.755951,220.076157 207.718384,218.846817 
	C212.577942,216.730499 217.373764,214.446884 222.321365,212.561600 
	C225.216965,211.458237 225.490356,209.756241 224.812500,207.155304 
	C224.029388,204.150467 223.515137,201.075577 223.593063,198.004105 
	C229.468170,201.369614 231.577988,207.029022 232.992279,213.184402 
	C233.408493,214.995834 234.319199,216.693680 235.365021,219.260284 
	C236.068314,223.442596 236.771622,227.624908 237.585876,232.467026 
	C245.609634,227.623505 253.171967,223.058502 260.708588,218.509033 
	C259.401825,214.482483 258.195251,210.764633 256.891632,206.747772 
	C249.674652,209.633331 242.807007,212.379211 235.950165,214.288666 
	C236.274826,211.527725 236.599487,208.766785 237.633179,205.819366 
	C243.667557,203.188736 249.701920,200.558105 255.951248,197.833771 
	C255.302765,193.755798 254.695633,189.937912 254.036011,185.789978 
	C246.299271,187.226318 239.177139,188.548553 231.452515,189.423508 
	C229.656311,187.708099 227.816269,186.035721 226.077057,184.264343 
	C224.542709,182.701675 224.432114,181.385727 227.705078,181.212677 
	C236.231415,183.355377 244.779343,185.211502 254.293869,183.469452 
	C250.790558,181.884827 247.959915,180.604462 245.939941,179.188721 
	C247.981308,178.758560 250.022675,178.328415 252.018143,177.907928 
	C250.532440,166.659714 249.993057,166.233353 239.692291,167.688034 
	C239.199646,167.757599 238.706268,167.821747 237.932053,167.249527 
	C237.141754,165.655167 236.351456,164.060822 235.721222,162.789368 
	C239.000336,161.700409 242.271484,161.037888 245.136337,159.578003 
	C251.936417,156.112823 258.741577,156.124176 265.896912,159.340332 
	C265.873749,160.865402 265.850586,162.390472 265.058044,164.047318 
	C262.656738,164.536575 260.255402,165.025833 257.422821,165.602966 
	C258.483734,169.184601 259.483582,172.560013 260.607452,176.354156 
	C264.011139,175.478561 267.017670,174.705154 270.677063,174.199158 
	C275.878632,179.087891 282.395020,177.637711 288.580109,178.113281 
	C291.173706,178.312683 293.673920,179.726532 296.216583,180.588272 
	C296.117218,181.189209 296.017853,181.790161 295.918488,182.391098 
	C306.751007,176.267471 318.480072,178.230927 329.630585,178.707718 
	C320.342468,182.303665 311.054352,185.899597 301.766235,189.495544 
	C301.804291,190.184875 301.842346,190.874191 301.880371,191.563522 
	C305.261871,191.853378 309.057465,193.284210 311.952332,192.233459 
	C323.792023,187.936050 335.356689,182.881042 347.947205,178.038895 
	C351.878632,178.038895 355.810028,178.038895 360.025757,178.038895 
	C360.025757,175.577560 360.025757,173.763779 360.888550,171.890930 
	C373.266663,168.962234 385.644775,166.033554 398.439606,163.006271 
	C388.534576,158.399200 379.441132,159.437775 370.386597,163.210327 
	C367.027435,164.609924 363.529877,165.677368 359.938293,166.018448 
	C359.938293,160.442062 359.938293,154.865677 359.938293,149.359421 
	C374.657776,149.359421 388.827789,149.359421 402.991272,149.359421 
	C402.991272,156.463760 402.991272,163.247162 402.234985,170.234879 
	C395.532288,171.888229 388.829559,173.541595 381.888702,175.253693 
	C388.875854,179.205994 395.874542,179.757812 404.005890,177.906143 
	C407.637482,177.939575 411.283020,177.790787 414.895935,178.067886 
	C417.478699,178.265976 418.005035,177.013672 418.748993,174.786346 
	C420.816925,174.516968 422.884857,174.247574 425.070099,174.852005 
	C425.856720,175.901520 426.573395,177.784485 427.441925,177.857361 
	C431.354279,178.185593 435.309692,178.000565 439.750031,178.000565 
	C439.750031,168.088730 439.750031,158.698273 439.750031,149.487457 
	C445.455017,147.979935 449.266205,149.728607 452.904175,153.697723 
	C459.533264,160.930222 466.610229,167.764420 473.714569,174.540146 
	C475.397430,176.145142 477.863525,177.645874 480.082886,177.830658 
	C485.677979,178.296494 491.337799,177.984924 497.138062,177.984924 
	C497.138062,173.099014 497.138062,168.532394 497.138062,163.569244 
	C494.054596,163.569244 491.246918,163.725677 488.466095,163.519760 
	C486.240753,163.354980 483.439331,163.466522 481.954681,162.205841 
	C477.468933,158.396851 473.500031,153.979248 468.533203,149.000519 
	C474.222717,149.000519 478.819183,149.154724 483.401550,148.965714 
	C490.968872,148.653549 496.650970,143.361435 497.190826,135.837036 
	C497.570984,130.539032 497.563477,125.184227 497.302124,119.875809 
	C496.884613,111.395996 491.371307,105.986031 482.887543,105.817368 
	C472.405701,105.608986 461.916901,105.745399 451.431122,105.739159 
	C442.813171,105.734024 434.195251,105.738113 424.909821,105.738113 
	C424.909821,127.410027 424.909821,148.664047 424.210632,169.817215 
	C422.165497,169.172424 420.120361,168.527634 417.877380,166.978439 
	C417.849243,152.318939 417.837006,137.659409 417.787933,122.999969 
	C417.748627,111.264542 412.362183,105.782501 400.774139,105.742340 
	C388.112946,105.698463 375.451477,105.711205 362.790161,105.738174 
	C350.698700,105.763931 345.384369,111.037560 345.313141,123.023582 
	C345.247833,134.015167 345.196991,145.006805 344.517731,156.358414 
	C339.244904,158.707108 333.972107,161.055786 327.809021,163.512177 
	C321.950867,163.546570 316.092682,163.580978 310.230499,163.072281 
	C310.187531,162.727417 310.144531,162.382553 310.766052,162.041061 
M128.616623,416.131958 
	C124.071770,418.460754 119.526924,420.789551 113.846489,423.700256 
	C118.838364,432.869568 123.676498,441.756439 128.653564,450.898529 
	C151.461349,439.487122 170.449326,425.218384 188.286087,409.117340 
	C179.762161,403.304504 171.716904,397.818085 164.202759,392.693878 
	C152.503906,400.439850 140.893509,408.127228 128.616623,416.131958 
M205.346451,394.853149 
	C216.797882,382.659119 228.249313,370.465088 240.197861,357.741730 
	C235.876907,356.245575 232.754318,355.180450 229.643219,354.082764 
	C226.353012,352.921844 222.725052,352.275116 219.859436,350.442444 
	C213.066284,346.098053 208.770081,348.281647 203.635880,353.822540 
	C193.142365,365.147339 181.737122,375.627319 170.552460,386.607330 
	C171.334045,387.343597 172.074020,388.232788 172.989380,388.870026 
	C177.216156,391.812531 181.376465,394.874756 185.773010,397.544312 
	C196.013412,403.762329 196.062897,403.680847 205.346451,394.853149 
M157.227722,385.023560 
	C151.155212,376.154846 145.082687,367.286163 138.882416,358.230865 
	C130.147690,363.144470 120.843063,368.538696 111.385254,373.649414 
	C103.518814,377.900238 103.251785,377.791168 105.061470,386.604614 
	C107.019997,396.142914 109.375366,405.599701 111.728416,415.834839 
	C117.946182,412.594604 123.556732,410.338379 128.420929,406.995972 
	C138.346146,400.176025 147.869553,392.771271 157.227722,385.023560 
M169.060059,335.565369 
	C162.462509,340.621887 155.812637,345.612976 149.321030,350.802063 
	C148.288849,351.627136 147.080139,353.733276 147.455307,354.586823 
	C151.599625,364.014893 156.640656,372.912750 166.322647,382.129272 
	C178.427994,368.992401 190.533356,355.855560 202.392960,342.985382 
	C195.200073,337.520111 187.974884,332.030304 180.436432,326.302460 
	C177.037582,329.066254 173.322556,332.087158 169.060059,335.565369 
M140.482513,249.966019 
	C143.660690,248.517792 146.835999,247.063278 150.017578,245.622574 
	C158.061493,241.980148 156.680069,243.427246 154.645615,235.941559 
	C152.056885,226.416504 148.721771,217.094284 145.466064,206.927780 
	C133.699097,211.499832 123.088318,215.622650 112.408356,219.772354 
	C116.255501,232.788605 119.854111,244.963974 123.565872,257.522186 
	C129.191483,254.991898 134.482452,252.612137 140.482513,249.966019 
M100.398148,359.084595 
	C100.943993,362.335571 101.489838,365.586517 102.184052,369.721130 
	C111.118706,364.749237 119.577950,360.226990 127.851387,355.387085 
	C136.503540,350.325592 136.295776,350.233337 133.282471,340.758667 
	C130.583023,332.270813 128.211670,323.678619 125.635574,314.928711 
	C116.324364,319.670959 107.006889,324.332733 97.822281,329.243042 
	C97.033997,329.664490 96.725510,331.784088 96.876450,333.032349 
	C97.893394,341.442139 99.094627,349.829681 100.398148,359.084595 
M258.486420,335.993164 
	C265.224640,328.159088 271.962860,320.325012 278.989288,312.155884 
	C268.952698,310.679779 259.779663,309.205780 250.562042,308.105560 
	C249.129150,307.934570 247.163528,309.136810 246.006516,310.275360 
	C240.788147,315.410431 235.747879,320.727966 230.690567,326.024719 
	C226.249054,330.676544 221.870209,335.388184 216.918137,340.653473 
	C224.817154,343.536987 231.912659,345.886719 238.808563,348.721954 
	C244.145584,350.916229 247.852844,349.736023 250.997070,344.962372 
	C252.996689,341.926514 255.654083,339.323914 258.486420,335.993164 
M86.848022,188.493408 
	C85.503487,186.188416 83.955070,185.105759 81.190376,186.712250 
	C78.468597,188.293762 75.352982,189.201935 72.646805,190.805023 
	C66.147232,194.655258 59.786362,198.739624 53.723835,202.509232 
	C60.357407,213.407120 66.378456,223.298737 72.373230,233.147202 
	C82.178902,227.380859 91.876213,221.678253 102.503922,215.428513 
	C97.383202,206.592712 92.319572,197.855392 86.848022,188.493408 
M167.517975,303.875092 
	C166.316528,299.937073 165.115082,295.999054 163.769638,291.589081 
	C154.134781,297.488434 144.770355,303.118103 135.571884,309.006927 
	C134.595078,309.632294 133.927582,311.941437 134.238892,313.189514 
	C136.880707,323.781036 139.782898,334.307617 142.929077,346.056366 
	C154.598694,336.717773 165.167969,328.259735 175.379272,320.088135 
	C172.613846,314.417664 170.218582,309.506195 167.517975,303.875092 
M122.582596,293.897491 
	C121.006287,285.759583 119.429977,277.621674 117.762650,269.013855 
	C108.440208,273.079803 99.462486,276.910431 90.600266,280.991791 
	C89.711723,281.401001 88.920845,283.430511 89.103233,284.540680 
	C91.088501,296.624634 93.277130,308.675201 95.526260,321.390045 
	C102.000252,318.059692 108.222031,315.006012 114.304848,311.696930 
	C124.418526,306.195068 124.380943,306.125977 122.582596,293.897491 
M112.744705,248.815338 
	C110.293793,240.589218 107.842880,232.363113 105.028450,222.916885 
	C95.297798,228.940414 86.427589,234.365891 77.665550,239.960800 
	C76.828941,240.495010 76.005226,242.315048 76.293861,243.152893 
	C79.732162,253.133621 83.382668,263.041260 87.153198,273.453033 
	C93.125328,270.847748 99.204605,268.251068 105.237892,265.551575 
	C115.751274,260.847534 115.739388,260.820984 112.744705,248.815338 
M134.513565,300.087280 
	C142.995758,294.852417 151.513107,289.672760 159.920898,284.321014 
	C161.133911,283.548920 162.733902,281.843719 162.607452,280.749084 
	C161.471558,270.914948 159.989456,261.120819 158.503525,250.565277 
	C147.519226,255.571457 137.421570,260.105072 127.422592,264.846802 
	C126.518944,265.275360 125.608711,267.158752 125.787941,268.174866 
	C127.575645,278.310059 129.550781,288.413391 131.623779,298.494690 
	C131.783218,299.270050 133.086670,299.810120 134.513565,300.087280 
M204.156601,305.655670 
	C198.620422,310.592316 193.084244,315.528992 186.726379,321.198364 
	C192.215622,325.361603 197.010681,329.393250 202.197952,332.833466 
	C208.802505,337.213654 208.925766,336.994324 214.289566,331.395203 
	C217.160980,328.397827 220.098358,325.463745 222.988724,322.484406 
	C228.390808,316.916046 233.780319,311.335449 239.029099,305.910797 
	C231.959793,302.379242 225.361130,298.952972 218.614563,295.847992 
	C217.563004,295.364075 215.512253,295.926727 214.482513,296.725800 
	C211.078506,299.367310 207.930527,302.338806 204.156601,305.655670 
M264.804504,291.311890 
	C261.569244,294.029785 258.333984,296.747650 255.098724,299.465546 
	C255.508438,300.122620 255.918152,300.779694 256.327850,301.436768 
	C265.406219,302.264191 274.475952,303.233124 283.570923,303.787170 
	C285.188202,303.885712 287.252472,302.612823 288.528870,301.374023 
	C296.877136,293.271729 305.070709,285.009918 313.298187,276.783569 
	C314.173248,275.908600 314.940430,274.925690 316.331543,273.337830 
	C307.643463,272.421204 299.791687,271.407379 291.907379,270.881531 
	C289.730255,270.736359 286.933044,271.426453 285.317535,272.793518 
	C278.469513,278.588348 271.959198,284.782257 264.804504,291.311890 
M198.939560,299.435791 
	C202.650558,296.140930 206.361557,292.846069 209.645996,289.929932 
	C205.535172,283.126404 201.637039,276.674866 197.435760,269.721619 
	C189.596695,274.907959 181.300354,280.338074 173.107254,285.919769 
	C172.388260,286.409576 171.922516,287.951447 172.055038,288.905182 
	C173.324860,298.043579 176.327408,306.512115 182.085403,314.293945 
	C187.738632,309.312744 193.074799,304.610870 198.939560,299.435791 
M227.825714,291.704559 
	C232.740417,293.672699 237.597015,295.813324 242.606277,297.500732 
	C244.052750,297.987946 246.512390,297.796234 247.533112,296.856934 
	C257.285095,287.882721 266.827728,278.681000 276.540741,269.439636 
	C269.376282,267.511139 262.409943,265.603271 255.415390,263.805054 
	C254.732483,263.629486 253.691010,263.899078 253.127274,264.350677 
	C243.216019,272.289886 233.353271,280.289642 222.997421,288.666656 
	C225.025635,289.938049 226.115387,290.621155 227.825714,291.704559 
M169.480621,270.989471 
	C169.833267,273.015167 170.185913,275.040833 170.660172,277.765045 
	C179.380371,271.949432 187.515549,266.581482 195.551758,261.069244 
	C196.297775,260.557556 196.862869,259.078522 196.754440,258.135773 
	C195.872284,250.466949 194.809540,242.818863 193.697525,234.372757 
	C184.964371,238.408081 177.086090,242.186539 169.081070,245.674026 
	C166.190552,246.933273 165.701813,248.633713 166.248230,251.490891 
	C167.430756,257.674408 168.311188,263.915649 169.480621,270.989471 
M304.281677,247.765625 
	C309.954651,243.935135 315.627625,240.104660 322.567871,235.418472 
	C313.806793,234.486542 306.591064,233.580032 299.347687,233.055939 
	C297.738037,232.939453 295.818726,233.860977 294.402863,234.831177 
	C284.798706,241.412247 275.282898,248.122589 265.765228,254.829010 
	C264.767273,255.532181 263.942841,256.481628 262.244965,258.048615 
	C269.939453,259.424347 276.611572,260.748505 283.335449,261.711365 
	C284.720032,261.909637 286.521118,261.067657 287.747711,260.177856 
	C293.132111,256.271790 298.376099,252.172180 304.281677,247.765625 
M330.808167,262.310455 
	C338.551697,256.939270 346.295227,251.568069 354.216034,246.073929 
	C352.935028,245.460007 351.631531,244.772064 350.279968,244.197281 
	C334.945343,237.675995 334.873962,237.571854 320.877686,246.505875 
	C313.086426,251.479126 305.571960,256.885925 296.691528,262.944092 
	C305.090851,264.076752 311.860718,264.719025 318.513428,265.979462 
	C323.145355,266.857086 326.995026,266.258148 330.808167,262.310455 
M236.315643,250.064194 
	C235.198532,248.494568 234.081421,246.924942 232.849197,245.193588 
	C224.176758,251.176620 215.913010,256.769348 207.818787,262.597565 
	C206.795395,263.334442 205.955109,265.469299 206.233322,266.679932 
	C207.755280,273.302704 211.053146,278.958740 216.520340,283.628357 
	C226.426315,275.508484 236.144104,267.542908 244.922638,260.347198 
	C242.101028,256.978912 239.441803,253.804459 236.315643,250.064194 
M346.697205,207.004486 
	C345.244141,206.905945 343.484711,206.222885 342.385376,206.799164 
	C331.274750,212.623505 320.272125,218.653870 309.239166,224.626358 
	C316.681000,227.005737 323.635284,228.356003 330.603577,229.629593 
	C331.537689,229.800308 332.688354,229.887299 333.492706,229.500931 
	C344.488098,224.219513 355.440186,218.847916 367.487305,212.969360 
	C360.188538,210.833801 353.837646,208.975571 346.697205,207.004486 
M412.474182,197.000580 
	C407.288940,194.399902 402.159546,191.676910 396.886444,189.268631 
	C395.170837,188.485092 392.854614,187.792526 391.196716,188.303375 
	C379.523132,191.900452 367.949646,195.822540 355.285309,199.989197 
	C363.258850,203.249771 369.832611,205.962006 376.434753,208.603226 
	C377.152466,208.890366 378.118011,209.026031 378.827393,208.796188 
	C390.167633,205.121933 401.484863,201.376694 412.474182,197.000580 
M227.122208,239.418884 
	C228.077515,238.202347 229.936264,236.904449 229.835281,235.783020 
	C229.338089,230.261108 228.321091,224.786011 227.406189,218.758163 
	C218.948761,222.634262 211.118484,226.189850 203.333374,229.841690 
	C202.549988,230.209152 201.419617,231.240387 201.496674,231.825821 
	C202.474884,239.257614 203.644867,246.664169 204.853439,254.655334 
	C212.564560,249.395981 219.544373,244.635406 227.122208,239.418884 
M261.737274,227.237396 
	C254.574585,231.567642 247.411896,235.897888 239.079208,240.935486 
	C243.209076,245.060226 246.468552,248.464081 249.898361,251.686646 
	C252.021194,253.681213 254.072922,253.317093 256.476868,251.507553 
	C264.160614,245.723755 272.055908,240.221130 279.863464,234.601547 
	C281.086945,233.720947 282.278839,232.796478 283.212616,232.096649 
	C278.195709,230.187866 273.374542,228.845734 269.071869,226.537231 
	C266.367188,225.086090 264.541077,225.275330 261.737274,227.237396 
M354.458405,227.965042 
	C351.267365,229.566650 348.076324,231.168243 344.364990,233.030991 
	C350.782654,235.887344 356.337830,238.443466 361.977570,240.796906 
	C363.060242,241.248718 364.655518,241.318939 365.708527,240.861435 
	C374.347931,237.107971 382.914917,233.187912 392.131683,229.035599 
	C389.211456,226.723022 386.562012,224.786560 384.097504,222.638016 
	C379.618958,218.733673 375.096069,217.994736 369.683960,221.052856 
	C365.067139,223.661621 360.017365,225.504135 354.458405,227.965042 
M407.279572,223.723389 
	C416.504120,220.690414 425.728699,217.657425 435.809662,214.342865 
	C431.830994,210.964767 428.525085,207.967438 424.987823,205.273849 
	C423.963837,204.494049 422.125610,204.033722 420.916382,204.363831 
	C409.730438,207.417450 398.600555,210.676437 386.704346,214.091034 
	C390.400085,217.113495 393.694489,219.199692 396.187378,221.999542 
	C399.343842,225.544586 402.514038,226.318024 407.279572,223.723389 
M302.417725,219.931885 
	C310.930603,214.916763 319.443512,209.901642 328.651001,204.477310 
	C317.847534,203.362579 307.830536,200.503540 298.546387,207.501648 
	C295.552216,209.758545 291.734528,210.906906 288.339752,212.652252 
	C283.831879,214.969849 279.369263,217.375473 274.543457,219.924881 
	C282.642670,225.035324 294.036530,225.010101 302.417725,219.931885 
M415.649567,183.084198 
	C413.223297,183.597733 410.797058,184.111267 407.496246,184.809906 
	C413.515076,188.328720 418.500641,191.288528 423.544250,194.145828 
	C424.344238,194.599045 425.463013,194.906433 426.337585,194.747696 
	C437.389679,192.741684 448.424042,190.637802 460.434753,188.375854 
	C456.687805,185.970123 453.681183,183.625992 450.323822,182.010834 
	C447.474915,180.640274 444.135986,179.137024 441.162628,179.396530 
	C432.901093,180.117584 424.717072,181.726410 415.649567,183.084198 
M455.286102,210.822647 
	C463.397736,209.694183 471.509369,208.565704 479.868988,207.402740 
	C474.835419,199.621338 469.505585,193.924362 459.190308,196.891708 
	C453.017700,198.667328 446.438843,199.011307 440.060181,200.101669 
	C438.081879,200.439835 436.161346,201.115891 433.827423,201.740845 
	C439.913483,208.009872 444.858490,214.856400 455.286102,210.822647 
M376.898956,183.965286 
	C376.998322,183.831848 377.131500,183.710083 377.183228,183.560196 
	C377.210480,183.481293 377.117798,183.281464 377.041412,183.257614 
	C370.826416,181.319061 364.759125,179.715286 358.168457,182.477386 
	C348.372772,186.582703 338.334747,190.108658 328.416290,193.923889 
	C327.514526,194.270767 326.732117,194.927841 325.781708,195.509811 
	C335.514862,197.357391 344.530151,198.190063 353.589050,193.164978 
	C360.629913,189.259338 368.676971,187.167618 376.898956,183.965286 
M297.587402,198.997284 
	C295.264557,197.053848 292.348663,193.043549 290.717712,193.511520 
	C281.916748,196.036743 273.434418,199.672516 264.696381,202.980484 
	C265.886383,207.227448 266.838531,210.625488 267.828125,214.157211 
	C278.045654,208.972382 287.493103,204.178314 297.587402,198.997284 
M325.004791,132.759949 
	C323.509857,127.658249 322.014923,122.556549 320.414124,117.093460 
	C315.184937,121.079803 310.472900,124.671928 305.519409,128.448120 
	C307.473389,132.776016 309.351349,136.935577 311.406464,141.487503 
	C316.061615,138.518341 320.258545,135.841446 325.004791,132.759949 
M315.332153,148.718842 
	C316.148956,150.472351 316.714783,152.415253 317.854248,153.925308 
	C318.959106,155.389542 321.128876,157.729828 322.012268,157.411728 
	C328.223175,155.175232 334.222382,152.350891 340.649536,149.557846 
	C336.470612,145.704651 333.232483,142.718948 329.880554,139.628281 
	C325.085999,142.540451 320.441406,145.361526 315.332153,148.718842 
M285.478943,186.860138 
	C285.682312,184.332657 285.885681,181.805176 286.154297,178.466599 
	C277.129974,180.667847 269.648315,182.492798 262.057159,184.344467 
	C262.680359,188.169952 263.202026,191.372009 263.806519,195.082458 
	C271.157013,192.278290 277.947845,189.687637 285.478943,186.860138 
z"/>
<path fill="#FECE2D" opacity="1.000000" stroke="none" 
	d="
M145.178085,145.999619 
	C145.780136,124.584953 155.889313,109.354752 173.772736,102.919739 
	C201.836868,92.821388 231.132050,113.434792 231.037735,143.223236 
	C231.031418,145.218216 230.923782,147.212860 230.713135,149.988312 
	C229.667740,153.821106 228.772476,156.873245 227.637024,160.171204 
	C226.022995,162.960327 224.649170,165.503632 223.105209,168.249039 
	C221.942032,169.789337 220.948975,171.127533 219.617508,172.563721 
	C217.439163,174.306488 215.599228,175.951309 213.428268,177.731567 
	C205.502182,183.083511 196.935150,185.262619 187.436401,185.799408 
	C184.088486,185.331787 181.190048,184.999512 178.051041,184.507477 
	C168.132187,181.987137 160.545059,176.387680 153.978607,168.706238 
	C152.301239,165.950668 150.736282,163.522141 149.095428,160.706207 
	C147.739029,155.545731 146.458557,150.772675 145.178085,145.999619 
z"/>
<path fill="#020202" opacity="1.000000" stroke="none" 
	d="
M424.909821,169.918060 
	C424.909821,148.664047 424.909821,127.410027 424.909821,105.738113 
	C434.195251,105.738113 442.813171,105.734024 451.431122,105.739159 
	C461.916901,105.745399 472.405701,105.608986 482.887543,105.817368 
	C491.371307,105.986031 496.884613,111.395996 497.302124,119.875809 
	C497.563477,125.184227 497.570984,130.539032 497.190826,135.837036 
	C496.650970,143.361435 490.968872,148.653549 483.401550,148.965714 
	C478.819183,149.154724 474.222717,149.000519 468.533203,149.000519 
	C473.500031,153.979248 477.468933,158.396851 481.954681,162.205841 
	C483.439331,163.466522 486.240753,163.354980 488.466095,163.519760 
	C491.246918,163.725677 494.054596,163.569244 497.138062,163.569244 
	C497.138062,168.532394 497.138062,173.099014 497.138062,177.984924 
	C491.337799,177.984924 485.677979,178.296494 480.082886,177.830658 
	C477.863525,177.645874 475.397430,176.145142 473.714569,174.540146 
	C466.610229,167.764420 459.533264,160.930222 452.904175,153.697723 
	C449.266205,149.728607 445.455017,147.979935 439.750031,149.487457 
	C439.750031,158.698273 439.750031,168.088730 439.750031,178.000565 
	C435.309692,178.000565 431.354279,178.185593 427.441925,177.857361 
	C426.573395,177.784485 425.856720,175.901520 425.077576,174.013702 
	C425.026611,172.089630 424.968201,171.003845 424.909821,169.918060 
M461.499847,134.690842 
	C468.601593,134.690842 475.703339,134.690842 482.685120,134.690842 
	C482.685120,129.440414 482.685120,124.860817 482.685120,120.258148 
	C468.259796,120.258148 454.162140,120.258148 439.878662,120.258148 
	C439.878662,125.051109 439.878662,129.640076 439.878662,134.690826 
	C446.928131,134.690826 453.714111,134.690826 461.499847,134.690842 
z"/>
<path fill="#040404" opacity="1.000000" stroke="none" 
	d="
M402.991272,170.030563 
	C402.991272,163.247162 402.991272,156.463760 402.991272,149.359421 
	C388.827789,149.359421 374.657776,149.359421 359.938293,149.359421 
	C359.938293,154.865677 359.938293,160.442062 359.963135,166.877716 
	C360.000549,169.141327 360.013153,170.545654 360.025757,171.949997 
	C360.025757,173.763779 360.025757,175.577560 360.025757,178.038895 
	C355.810028,178.038895 351.878632,178.038895 347.244415,177.946579 
	C346.078461,177.576736 345.615326,177.299194 345.231689,176.561584 
	C345.223602,172.076324 345.135986,168.051163 345.234680,163.706680 
	C345.327271,160.924393 345.233521,158.461411 345.139771,155.998428 
	C345.196991,145.006805 345.247833,134.015167 345.313141,123.023582 
	C345.384369,111.037560 350.698700,105.763931 362.790161,105.738174 
	C375.451477,105.711205 388.112946,105.698463 400.774139,105.742340 
	C412.362183,105.782501 417.748627,111.264542 417.787933,122.999969 
	C417.837006,137.659409 417.849243,152.318939 417.908081,167.870331 
	C417.953796,170.820450 417.968872,172.878677 417.983948,174.936920 
	C418.005035,177.013672 417.478699,178.265976 414.895935,178.067886 
	C411.283020,177.790787 407.637482,177.939575 403.598785,177.326385 
	C403.124878,174.507935 403.058075,172.269257 402.991272,170.030563 
M363.666443,120.059174 
	C362.406311,120.831528 360.149506,121.501877 360.058228,122.393852 
	C359.658447,126.299881 359.886078,130.270126 359.886078,134.327927 
	C374.552216,134.327927 388.731445,134.327927 402.841309,134.327927 
	C402.841309,129.408508 402.841309,124.854019 402.841309,120.059090 
	C389.868774,120.059090 377.251678,120.059090 363.666443,120.059174 
z"/>
<path fill="#010101" opacity="1.000000" stroke="none" 
	d="
M98.097771,171.179932 
	C97.925644,173.275894 97.753517,175.371857 97.537033,178.007965 
	C91.610001,178.007965 85.743202,178.007965 78.948959,177.981216 
	C63.541660,177.974548 49.056236,178.209244 34.586658,177.833527 
	C31.694510,177.758423 28.862833,175.354553 26.003271,174.024475 
	C24.457563,169.777405 26.366722,166.732422 29.282106,163.838470 
	C42.515305,150.702515 55.679455,137.496979 68.856712,124.304756 
	C69.971443,123.188759 70.999428,121.986115 72.633057,120.208572 
	C56.529377,120.208572 41.300083,120.208572 25.697136,120.208572 
	C25.697136,115.324783 25.697136,110.793121 25.697136,106.007042 
	C27.082722,105.914307 28.373880,105.753632 29.665165,105.752602 
	C49.143681,105.737022 68.622398,105.786957 88.100594,105.705635 
	C92.040573,105.689186 95.427094,106.313118 97.123619,110.368019 
	C98.785835,114.340881 96.541374,117.027054 93.979897,119.579666 
	C83.367935,130.154861 72.753868,140.727951 61.960587,151.876007 
	C61.122780,153.116379 60.464970,153.782547 59.485813,154.575653 
	C57.165791,156.773453 55.167114,158.844315 52.843452,161.055038 
	C52.653435,162.021454 52.765503,163.561386 52.926838,163.566574 
	C55.025837,163.633942 57.131828,163.483612 59.678596,163.455505 
	C64.351753,163.549393 68.582367,163.575912 73.281410,163.710266 
	C80.329018,163.783554 86.914825,163.913467 93.484726,163.648605 
	C97.049103,163.504898 98.250427,164.891357 97.877350,168.241119 
	C97.770477,169.200623 98.014595,170.199249 98.097771,171.179932 
z"/>
<path fill="#504A86" opacity="1.000000" stroke="none" 
	d="
M128.949875,415.973267 
	C140.893509,408.127228 152.503906,400.439850 164.202759,392.693878 
	C171.716904,397.818085 179.762161,403.304504 188.286087,409.117340 
	C170.449326,425.218384 151.461349,439.487122 128.653564,450.898529 
	C123.676498,441.756439 118.838364,432.869568 113.846489,423.700256 
	C119.526924,420.789551 124.071770,418.460754 128.949875,415.973267 
z"/>
<path fill="#020203" opacity="1.000000" stroke="none" 
	d="
M265.827454,163.915543 
	C265.850586,162.390472 265.873749,160.865402 265.900391,158.492523 
	C265.852905,155.778061 265.801880,153.911392 265.815643,151.590546 
	C265.810059,148.972855 265.739716,146.809357 265.669373,144.645859 
	C265.669373,131.888443 265.669373,119.131042 265.669373,106.057655 
	C270.719818,106.057655 275.242035,106.057655 280.273224,106.057655 
	C280.273224,117.076653 280.273224,127.987076 280.253265,139.798462 
	C280.238922,142.483444 280.244537,144.267441 280.250153,146.051453 
	C280.266541,150.989105 280.282928,155.926758 280.230530,161.602814 
	C280.547852,162.725357 280.933960,163.109497 281.320068,163.493622 
	C283.537140,163.518051 285.754242,163.542465 288.850586,163.653290 
	C295.494446,163.743881 301.259094,163.748077 307.425842,163.857590 
	C308.630157,163.847061 309.432343,163.731216 310.234528,163.615387 
	C316.092682,163.580978 321.950867,163.546570 328.716675,163.584335 
	C332.591522,164.620483 336.836212,161.536911 338.391418,166.861832 
	C338.242462,170.115097 338.251495,172.980072 338.172852,176.266693 
	C335.382111,177.155930 332.679016,177.623535 329.975952,178.091141 
	C318.480072,178.230927 306.751007,176.267471 295.918488,182.391098 
	C296.017853,181.790161 296.117218,181.189209 296.216583,180.588272 
	C293.673920,179.726532 291.173706,178.312683 288.580109,178.113281 
	C282.395020,177.637711 275.878632,179.087891 270.190643,173.760590 
	C268.411957,170.186523 267.119690,167.051041 265.827454,163.915543 
z"/>
<path fill="#504A86" opacity="1.000000" stroke="none" 
	d="
M205.083588,395.091797 
	C196.062897,403.680847 196.013412,403.762329 185.773010,397.544312 
	C181.376465,394.874756 177.216156,391.812531 172.989380,388.870026 
	C172.074020,388.232788 171.334045,387.343597 170.552460,386.607330 
	C181.737122,375.627319 193.142365,365.147339 203.635880,353.822540 
	C208.770081,348.281647 213.066284,346.098053 219.859436,350.442444 
	C222.725052,352.275116 226.353012,352.921844 229.643219,354.082764 
	C232.754318,355.180450 235.876907,356.245575 240.197861,357.741730 
	C228.249313,370.465088 216.797882,382.659119 205.083588,395.091797 
z"/>
<path fill="#504A86" opacity="1.000000" stroke="none" 
	d="
M157.393097,385.315491 
	C147.869553,392.771271 138.346146,400.176025 128.420929,406.995972 
	C123.556732,410.338379 117.946182,412.594604 111.728416,415.834839 
	C109.375366,405.599701 107.019997,396.142914 105.061470,386.604614 
	C103.251785,377.791168 103.518814,377.900238 111.385254,373.649414 
	C120.843063,368.538696 130.147690,363.144470 138.882416,358.230865 
	C145.082687,367.286163 151.155212,376.154846 157.393097,385.315491 
z"/>
<path fill="#504A86" opacity="1.000000" stroke="none" 
	d="
M169.333801,335.336731 
	C173.322556,332.087158 177.037582,329.066254 180.436432,326.302460 
	C187.974884,332.030304 195.200073,337.520111 202.392960,342.985382 
	C190.533356,355.855560 178.427994,368.992401 166.322647,382.129272 
	C156.640656,372.912750 151.599625,364.014893 147.455307,354.586823 
	C147.080139,353.733276 148.288849,351.627136 149.321030,350.802063 
	C155.812637,345.612976 162.462509,340.621887 169.333801,335.336731 
z"/>
<path fill="#FDCF32" opacity="1.000000" stroke="none" 
	d="
M208.966125,57.977306 
	C206.632431,63.732193 203.277740,69.324455 202.326050,75.299461 
	C201.697632,79.244896 204.502350,83.746628 205.809311,87.987152 
	C206.542114,90.364876 207.355072,92.717888 208.127228,95.079163 
	C218.251266,93.365273 227.164368,90.191483 228.325699,77.549553 
	C231.421600,88.804535 228.399246,98.647812 223.942825,108.810661 
	C224.010193,109.541191 224.020248,109.720024 224.023315,109.899254 
	C210.949600,97.262436 195.453262,91.813606 177.646851,96.120262 
	C170.785568,97.779747 164.573181,102.107269 158.047882,105.182503 
	C156.608902,105.860664 155.096603,106.383247 153.311630,106.985146 
	C153.005188,106.992836 153.035797,107.023140 153.035797,107.023140 
	C151.159317,104.275131 149.622421,101.199295 147.344025,98.839294 
	C139.889984,91.118256 137.598251,78.092110 142.488297,67.536476 
	C143.103592,70.374817 143.549927,72.859261 144.187134,75.293747 
	C146.133347,82.729523 150.562546,87.887619 157.941116,90.516228 
	C161.507614,91.786797 164.907257,93.525764 168.423355,95.070618 
	C174.921448,83.407593 174.921448,83.407593 171.321518,68.645599 
	C180.145294,75.066299 185.409668,83.171768 188.401810,92.953751 
	C188.925613,92.940720 189.449417,92.927696 189.973221,92.914673 
	C190.279190,89.870323 190.825302,86.827797 190.848480,83.781288 
	C190.936615,72.207108 197.467377,62.403988 208.669724,57.934940 
	C209.009598,58.012726 208.966125,57.977306 208.966125,57.977306 
z"/>
<path fill="#504A86" opacity="1.000000" stroke="none" 
	d="
M140.127960,250.099197 
	C134.482452,252.612137 129.191483,254.991898 123.565872,257.522186 
	C119.854111,244.963974 116.255501,232.788605 112.408356,219.772354 
	C123.088318,215.622650 133.699097,211.499832 145.466064,206.927780 
	C148.721771,217.094284 152.056885,226.416504 154.645615,235.941559 
	C156.680069,243.427246 158.061493,241.980148 150.017578,245.622574 
	C146.835999,247.063278 143.660690,248.517792 140.127960,250.099197 
z"/>
<path fill="#504A86" opacity="1.000000" stroke="none" 
	d="
M100.317169,358.654510 
	C99.094627,349.829681 97.893394,341.442139 96.876450,333.032349 
	C96.725510,331.784088 97.033997,329.664490 97.822281,329.243042 
	C107.006889,324.332733 116.324364,319.670959 125.635574,314.928711 
	C128.211670,323.678619 130.583023,332.270813 133.282471,340.758667 
	C136.295776,350.233337 136.503540,350.325592 127.851387,355.387085 
	C119.577950,360.226990 111.118706,364.749237 102.184052,369.721130 
	C101.489838,365.586517 100.943993,362.335571 100.317169,358.654510 
z"/>
<path fill="#504A86" opacity="1.000000" stroke="none" 
	d="
M258.251465,336.260071 
	C255.654083,339.323914 252.996689,341.926514 250.997070,344.962372 
	C247.852844,349.736023 244.145584,350.916229 238.808563,348.721954 
	C231.912659,345.886719 224.817154,343.536987 216.918137,340.653473 
	C221.870209,335.388184 226.249054,330.676544 230.690567,326.024719 
	C235.747879,320.727966 240.788147,315.410431 246.006516,310.275360 
	C247.163528,309.136810 249.129150,307.934570 250.562042,308.105560 
	C259.779663,309.205780 268.952698,310.679779 278.989288,312.155884 
	C271.962860,320.325012 265.224640,328.159088 258.251465,336.260071 
z"/>
<path fill="#504A86" opacity="1.000000" stroke="none" 
	d="
M87.051979,188.805756 
	C92.319572,197.855392 97.383202,206.592712 102.503922,215.428513 
	C91.876213,221.678253 82.178902,227.380859 72.373230,233.147202 
	C66.378456,223.298737 60.357407,213.407120 53.723835,202.509232 
	C59.786362,198.739624 66.147232,194.655258 72.646805,190.805023 
	C75.352982,189.201935 78.468597,188.293762 81.190376,186.712250 
	C83.955070,185.105759 85.503487,186.188416 87.051979,188.805756 
z"/>
<path fill="#504A86" opacity="1.000000" stroke="none" 
	d="
M167.670654,304.234924 
	C170.218582,309.506195 172.613846,314.417664 175.379272,320.088135 
	C165.167969,328.259735 154.598694,336.717773 142.929077,346.056366 
	C139.782898,334.307617 136.880707,323.781036 134.238892,313.189514 
	C133.927582,311.941437 134.595078,309.632294 135.571884,309.006927 
	C144.770355,303.118103 154.134781,297.488434 163.769638,291.589081 
	C165.115082,295.999054 166.316528,299.937073 167.670654,304.234924 
z"/>
<path fill="#504A86" opacity="1.000000" stroke="none" 
	d="
M122.677544,294.313904 
	C124.380943,306.125977 124.418526,306.195068 114.304848,311.696930 
	C108.222031,315.006012 102.000252,318.059692 95.526260,321.390045 
	C93.277130,308.675201 91.088501,296.624634 89.103233,284.540680 
	C88.920845,283.430511 89.711723,281.401001 90.600266,280.991791 
	C99.462486,276.910431 108.440208,273.079803 117.762650,269.013855 
	C119.429977,277.621674 121.006287,285.759583 122.677544,294.313904 
z"/>
<path fill="#504A86" opacity="1.000000" stroke="none" 
	d="
M112.838364,249.216797 
	C115.739388,260.820984 115.751274,260.847534 105.237892,265.551575 
	C99.204605,268.251068 93.125328,270.847748 87.153198,273.453033 
	C83.382668,263.041260 79.732162,253.133621 76.293861,243.152893 
	C76.005226,242.315048 76.828941,240.495010 77.665550,239.960800 
	C86.427589,234.365891 95.297798,228.940414 105.028450,222.916885 
	C107.842880,232.363113 110.293793,240.589218 112.838364,249.216797 
z"/>
<path fill="#504A86" opacity="1.000000" stroke="none" 
	d="
M134.185974,300.273438 
	C133.086670,299.810120 131.783218,299.270050 131.623779,298.494690 
	C129.550781,288.413391 127.575645,278.310059 125.787941,268.174866 
	C125.608711,267.158752 126.518944,265.275360 127.422592,264.846802 
	C137.421570,260.105072 147.519226,255.571457 158.503525,250.565277 
	C159.989456,261.120819 161.471558,270.914948 162.607452,280.749084 
	C162.733902,281.843719 161.133911,283.548920 159.920898,284.321014 
	C151.513107,289.672760 142.995758,294.852417 134.185974,300.273438 
z"/>
<path fill="#504A86" opacity="1.000000" stroke="none" 
	d="
M204.420441,305.419647 
	C207.930527,302.338806 211.078506,299.367310 214.482513,296.725800 
	C215.512253,295.926727 217.563004,295.364075 218.614563,295.847992 
	C225.361130,298.952972 231.959793,302.379242 239.029099,305.910797 
	C233.780319,311.335449 228.390808,316.916046 222.988724,322.484406 
	C220.098358,325.463745 217.160980,328.397827 214.289566,331.395203 
	C208.925766,336.994324 208.802505,337.213654 202.197952,332.833466 
	C197.010681,329.393250 192.215622,325.361603 186.726379,321.198364 
	C193.084244,315.528992 198.620422,310.592316 204.420441,305.419647 
z"/>
<path fill="#504A86" opacity="1.000000" stroke="none" 
	d="
M265.065002,291.071106 
	C271.959198,284.782257 278.469513,278.588348 285.317535,272.793518 
	C286.933044,271.426453 289.730255,270.736359 291.907379,270.881531 
	C299.791687,271.407379 307.643463,272.421204 316.331543,273.337830 
	C314.940430,274.925690 314.173248,275.908600 313.298187,276.783569 
	C305.070709,285.009918 296.877136,293.271729 288.528870,301.374023 
	C287.252472,302.612823 285.188202,303.885712 283.570923,303.787170 
	C274.475952,303.233124 265.406219,302.264191 256.327850,301.436768 
	C255.918152,300.779694 255.508438,300.122620 255.098724,299.465546 
	C258.333984,296.747650 261.569244,294.029785 265.065002,291.071106 
z"/>
<path fill="#514B86" opacity="1.000000" stroke="none" 
	d="
M135.973328,189.745621 
	C137.785965,193.050385 139.598618,196.355133 141.553268,199.918823 
	C130.510895,204.207596 120.048759,208.271011 109.613892,212.323837 
	C104.122002,202.250443 98.736610,192.372391 93.042587,181.928223 
	C95.609406,181.060944 98.448563,179.954849 101.369919,179.145401 
	C107.297379,177.502975 113.342865,176.252701 119.197784,174.393799 
	C123.297447,173.092178 126.216934,173.617828 128.182419,177.651917 
	C128.686737,178.687012 129.478943,179.581863 130.104980,181.150131 
	C124.438034,184.343094 118.804970,186.927048 113.563034,189.331589 
	C120.363205,192.209122 128.158005,191.203171 135.973328,189.745621 
z"/>
<path fill="#504A86" opacity="1.000000" stroke="none" 
	d="
M198.675262,299.672424 
	C193.074799,304.610870 187.738632,309.312744 182.085403,314.293945 
	C176.327408,306.512115 173.324860,298.043579 172.055038,288.905182 
	C171.922516,287.951447 172.388260,286.409576 173.107254,285.919769 
	C181.300354,280.338074 189.596695,274.907959 197.435760,269.721619 
	C201.637039,276.674866 205.535172,283.126404 209.645996,289.929932 
	C206.361557,292.846069 202.650558,296.140930 198.675262,299.672424 
z"/>
<path fill="#504A86" opacity="1.000000" stroke="none" 
	d="
M227.515442,291.504395 
	C226.115387,290.621155 225.025635,289.938049 222.997421,288.666656 
	C233.353271,280.289642 243.216019,272.289886 253.127274,264.350677 
	C253.691010,263.899078 254.732483,263.629486 255.415390,263.805054 
	C262.409943,265.603271 269.376282,267.511139 276.540741,269.439636 
	C266.827728,278.681000 257.285095,287.882721 247.533112,296.856934 
	C246.512390,297.796234 244.052750,297.987946 242.606277,297.500732 
	C237.597015,295.813324 232.740417,293.672699 227.515442,291.504395 
z"/>
<path fill="#514B87" opacity="1.000000" stroke="none" 
	d="
M169.397903,270.561401 
	C168.311188,263.915649 167.430756,257.674408 166.248230,251.490891 
	C165.701813,248.633713 166.190552,246.933273 169.081070,245.674026 
	C177.086090,242.186539 184.964371,238.408081 193.697525,234.372757 
	C194.809540,242.818863 195.872284,250.466949 196.754440,258.135773 
	C196.862869,259.078522 196.297775,260.557556 195.551758,261.069244 
	C187.515549,266.581482 179.380371,271.949432 170.660172,277.765045 
	C170.185913,275.040833 169.833267,273.015167 169.397903,270.561401 
z"/>
<path fill="#534C86" opacity="1.000000" stroke="none" 
	d="
M185.999527,205.131409 
	C188.095993,211.882538 190.192459,218.633682 192.420227,225.807632 
	C182.796234,230.281845 173.703049,234.509293 164.368927,238.848755 
	C160.689774,227.384369 157.167450,216.408600 153.424118,204.744186 
	C159.263107,203.188705 164.977539,201.666397 171.281860,200.305161 
	C176.649017,208.164474 174.958145,215.633636 170.802338,223.208771 
	C169.628845,224.870346 168.725739,226.348236 167.599426,227.913269 
	C167.416016,228.254059 167.455826,228.507721 167.495636,228.761383 
	C167.710434,228.556992 167.925217,228.352585 168.478134,228.123032 
	C170.282532,227.105209 171.748795,226.112549 173.526581,225.006210 
	C180.217545,219.736740 185.291229,213.777344 185.999527,205.131409 
z"/>
<path fill="#514B87" opacity="1.000000" stroke="none" 
	d="
M303.976318,247.954193 
	C298.376099,252.172180 293.132111,256.271790 287.747711,260.177856 
	C286.521118,261.067657 284.720032,261.909637 283.335449,261.711365 
	C276.611572,260.748505 269.939453,259.424347 262.244965,258.048615 
	C263.942841,256.481628 264.767273,255.532181 265.765228,254.829010 
	C275.282898,248.122589 284.798706,241.412247 294.402863,234.831177 
	C295.818726,233.860977 297.738037,232.939453 299.347687,233.055939 
	C306.591064,233.580032 313.806793,234.486542 322.567871,235.418472 
	C315.627625,240.104660 309.954651,243.935135 303.976318,247.954193 
z"/>
<path fill="#514B87" opacity="1.000000" stroke="none" 
	d="
M330.525269,262.534424 
	C326.995026,266.258148 323.145355,266.857086 318.513428,265.979462 
	C311.860718,264.719025 305.090851,264.076752 296.691528,262.944092 
	C305.571960,256.885925 313.086426,251.479126 320.877686,246.505875 
	C334.873962,237.571854 334.945343,237.675995 350.279968,244.197281 
	C351.631531,244.772064 352.935028,245.460007 354.216034,246.073929 
	C346.295227,251.568069 338.551697,256.939270 330.525269,262.534424 
z"/>
<path fill="#504A86" opacity="1.000000" stroke="none" 
	d="
M236.549103,250.347107 
	C239.441803,253.804459 242.101028,256.978912 244.922638,260.347198 
	C236.144104,267.542908 226.426315,275.508484 216.520340,283.628357 
	C211.053146,278.958740 207.755280,273.302704 206.233322,266.679932 
	C205.955109,265.469299 206.795395,263.334442 207.818787,262.597565 
	C215.913010,256.769348 224.176758,251.176620 232.849197,245.193588 
	C234.081421,246.924942 235.198532,248.494568 236.549103,250.347107 
z"/>
<path fill="#504A83" opacity="1.000000" stroke="none" 
	d="
M59.807159,154.448715 
	C60.464970,153.782547 61.122780,153.116379 61.928528,152.210693 
	C67.207184,150.854233 72.502922,150.217392 77.434837,148.522141 
	C88.268112,144.798386 97.451691,147.366760 105.800461,154.622849 
	C108.291977,156.788300 110.929985,158.785187 113.778198,160.699966 
	C114.055511,160.540619 114.031273,160.587036 114.031281,160.587036 
	C115.314880,162.254562 116.598488,163.922089 118.110519,165.886383 
	C111.543236,167.674744 105.216751,169.397522 98.494019,171.150116 
	C98.014595,170.199249 97.770477,169.200623 97.877350,168.241119 
	C98.250427,164.891357 97.049103,163.504898 93.484726,163.648605 
	C86.914825,163.913467 80.329018,163.783554 73.106491,163.449738 
	C68.244484,160.203796 64.025818,157.326263 59.807159,154.448715 
z"/>
<path fill="#FBCC31" opacity="1.000000" stroke="none" 
	d="
M236.924149,206.005844 
	C236.599487,208.766785 236.274826,211.527725 235.800766,214.968170 
	C235.435333,216.579636 235.219315,217.511612 235.003296,218.443573 
	C234.319199,216.693680 233.408493,214.995834 232.992279,213.184402 
	C231.577988,207.029022 229.468170,201.369614 223.273209,198.003876 
	C222.953354,198.003647 222.985123,198.071182 222.932770,197.833008 
	C222.668457,197.307053 222.384216,197.175842 221.718384,197.002457 
	C216.997696,195.088440 212.586319,193.373199 208.303055,191.707764 
	C200.382767,202.951263 200.386169,202.949982 204.788239,214.556458 
	C204.957458,215.002563 204.937164,215.520554 204.685211,216.206772 
	C201.918030,214.562943 199.470825,212.717377 197.023636,210.871811 
	C194.155853,205.118622 191.288055,199.365417 188.410156,192.966705 
	C190.087250,191.906708 191.816437,191.615173 193.454315,191.056122 
	C200.036087,188.809677 206.589630,186.480438 213.444061,184.087433 
	C214.544739,183.396393 215.354919,182.799713 216.488113,182.105896 
	C218.687027,180.686600 220.562943,179.364456 222.706268,178.115875 
	C224.314056,179.079788 225.654419,179.970108 226.994797,180.860428 
	C224.432114,181.385727 224.542709,182.701675 226.077057,184.264343 
	C227.816269,186.035721 229.656311,187.708099 231.854111,189.919647 
	C233.811859,195.612473 235.367996,200.809158 236.924149,206.005844 
z"/>
<path fill="#FECE31" opacity="1.000000" stroke="none" 
	d="
M224.167618,110.206467 
	C224.020248,109.720024 224.010193,109.541191 223.951355,109.239723 
	C226.778931,106.902954 229.881897,104.931335 232.474319,102.430496 
	C240.543579,94.646347 254.535095,92.279480 263.837402,97.481163 
	C261.052399,98.083435 258.355225,98.560089 255.716599,99.258072 
	C248.833389,101.078857 243.979126,105.218895 241.300323,111.915558 
	C239.708740,115.894371 237.866150,119.772774 236.325882,123.266510 
	C244.163742,128.256744 252.499405,133.219452 262.429016,124.773239 
	C259.541779,133.106400 246.225983,142.144562 237.075714,142.661728 
	C236.425720,130.572113 232.579819,119.631935 224.167618,110.206467 
z"/>
<path fill="#FECE31" opacity="1.000000" stroke="none" 
	d="
M136.962219,141.327271 
	C133.173874,140.983932 129.391937,140.483841 125.595901,140.328491 
	C116.474297,139.955276 105.647324,131.588928 103.180527,123.869408 
	C108.749321,125.541565 115.084221,128.944489 121.405533,128.919418 
	C127.715218,128.894394 134.011292,125.435852 140.300400,123.486588 
	C138.501328,113.521942 135.390686,104.532021 122.967918,102.987717 
	C133.509781,100.660400 143.081970,102.592896 152.660233,107.054245 
	C153.035797,107.023140 153.005188,106.992836 152.989502,106.977867 
	C152.483902,108.422386 152.362167,110.186806 151.445862,111.293198 
	C144.012802,120.268379 140.124008,130.538971 139.603012,142.591644 
	C139.536667,143.034363 139.512787,143.042648 139.343079,142.822174 
	C138.436325,142.176895 137.699280,141.752090 136.962219,141.327271 
z"/>
<path fill="#FACB31" opacity="1.000000" stroke="none" 
	d="
M139.512787,143.042648 
	C139.512787,143.042648 139.536667,143.034363 139.518951,143.031281 
	C139.618271,143.458694 139.735291,143.889191 139.868683,145.077393 
	C141.220428,151.220993 142.555786,156.606888 143.947021,162.342773 
	C145.442062,165.134796 146.881241,167.576828 148.449371,170.359711 
	C150.040253,172.809250 151.502197,174.917938 152.983063,177.010437 
	C153.001984,176.994247 153.035263,176.957153 152.690948,177.039642 
	C149.226608,179.699829 146.106583,182.277527 142.986542,184.855240 
	C140.805267,186.338684 138.623978,187.822128 136.208008,189.525589 
	C128.158005,191.203171 120.363205,192.209122 113.563034,189.331589 
	C118.804970,186.927048 124.438034,184.343094 130.284012,181.473724 
	C133.282883,175.111374 136.068832,169.034454 138.378754,162.575867 
	C132.992950,159.225754 128.930222,153.389160 121.935982,157.478760 
	C119.573730,158.385193 117.211487,159.291641 114.440254,160.392563 
	C114.031273,160.587036 114.055511,160.540619 114.041519,160.564056 
	C115.289108,158.608627 116.550674,156.629745 118.274887,154.207672 
	C122.874306,150.861481 127.011086,147.958481 131.147858,145.055481 
	C132.898285,144.470062 134.648727,143.884659 137.114075,143.144714 
	C138.390274,143.007675 138.951523,143.025162 139.512787,143.042648 
z"/>
<path fill="#514B87" opacity="1.000000" stroke="none" 
	d="
M347.091980,207.060913 
	C353.837646,208.975571 360.188538,210.833801 367.487305,212.969360 
	C355.440186,218.847916 344.488098,224.219513 333.492706,229.500931 
	C332.688354,229.887299 331.537689,229.800308 330.603577,229.629593 
	C323.635284,228.356003 316.681000,227.005737 309.239166,224.626358 
	C320.272125,218.653870 331.274750,212.623505 342.385376,206.799164 
	C343.484711,206.222885 345.244141,206.905945 347.091980,207.060913 
z"/>
<path fill="#FBCC30" opacity="1.000000" stroke="none" 
	d="
M227.349945,181.036560 
	C225.654419,179.970108 224.314056,179.079788 222.712250,177.858231 
	C222.472961,177.356476 222.495117,177.185944 222.757812,176.816528 
	C225.137039,173.820541 227.275742,171.023453 229.661438,167.994995 
	C231.121933,165.182617 232.335403,162.601562 233.718689,159.724487 
	C234.596725,156.409073 235.304977,153.389694 236.013214,150.370300 
	C236.433228,148.452576 236.853271,146.534866 237.266464,144.648407 
	C243.640945,145.157166 249.991318,145.664001 257.026520,146.423340 
	C260.391174,148.465485 263.071045,150.255112 265.750885,152.044739 
	C265.801880,153.911392 265.852905,155.778061 265.823395,158.120193 
	C258.741577,156.124176 251.936417,156.112823 245.136337,159.578003 
	C242.271484,161.037888 239.000336,161.700409 235.721222,162.789368 
	C236.351456,164.060822 237.141754,165.655167 238.068481,167.959534 
	C238.832916,173.312958 239.742630,177.773285 245.129257,179.324097 
	C247.959915,180.604462 250.790558,181.884827 254.293869,183.469452 
	C244.779343,185.211502 236.231415,183.355377 227.349945,181.036560 
z"/>
<path fill="#514B87" opacity="1.000000" stroke="none" 
	d="
M412.640747,197.324112 
	C401.484863,201.376694 390.167633,205.121933 378.827393,208.796188 
	C378.118011,209.026031 377.152466,208.890366 376.434753,208.603226 
	C369.832611,205.962006 363.258850,203.249771 355.285309,199.989197 
	C367.949646,195.822540 379.523132,191.900452 391.196716,188.303375 
	C392.854614,187.792526 395.170837,188.485092 396.886444,189.268631 
	C402.159546,191.676910 407.288940,194.399902 412.640747,197.324112 
z"/>
<path fill="#514B87" opacity="1.000000" stroke="none" 
	d="
M226.823181,239.646866 
	C219.544373,244.635406 212.564560,249.395981 204.853439,254.655334 
	C203.644867,246.664169 202.474884,239.257614 201.496674,231.825821 
	C201.419617,231.240387 202.549988,230.209152 203.333374,229.841690 
	C211.118484,226.189850 218.948761,222.634262 227.406189,218.758163 
	C228.321091,224.786011 229.338089,230.261108 229.835281,235.783020 
	C229.936264,236.904449 228.077515,238.202347 226.823181,239.646866 
z"/>
<path fill="#514B87" opacity="1.000000" stroke="none" 
	d="
M262.064514,227.069519 
	C264.541077,225.275330 266.367188,225.086090 269.071869,226.537231 
	C273.374542,228.845734 278.195709,230.187866 283.212616,232.096649 
	C282.278839,232.796478 281.086945,233.720947 279.863464,234.601547 
	C272.055908,240.221130 264.160614,245.723755 256.476868,251.507553 
	C254.072922,253.317093 252.021194,253.681213 249.898361,251.686646 
	C246.468552,248.464081 243.209076,245.060226 239.079208,240.935486 
	C247.411896,235.897888 254.574585,231.567642 262.064514,227.069519 
z"/>
<path fill="#524C87" opacity="1.000000" stroke="none" 
	d="
M354.808746,227.825317 
	C360.017365,225.504135 365.067139,223.661621 369.683960,221.052856 
	C375.096069,217.994736 379.618958,218.733673 384.097504,222.638016 
	C386.562012,224.786560 389.211456,226.723022 392.131683,229.035599 
	C382.914917,233.187912 374.347931,237.107971 365.708527,240.861435 
	C364.655518,241.318939 363.060242,241.248718 361.977570,240.796906 
	C356.337830,238.443466 350.782654,235.887344 344.364990,233.030991 
	C348.076324,231.168243 351.267365,229.566650 354.808746,227.825317 
z"/>
<path fill="#514B87" opacity="1.000000" stroke="none" 
	d="
M406.908813,223.840454 
	C402.514038,226.318024 399.343842,225.544586 396.187378,221.999542 
	C393.694489,219.199692 390.400085,217.113495 386.704346,214.091034 
	C398.600555,210.676437 409.730438,207.417450 420.916382,204.363831 
	C422.125610,204.033722 423.963837,204.494049 424.987823,205.273849 
	C428.525085,207.967438 431.830994,210.964767 435.809662,214.342865 
	C425.728699,217.657425 416.504120,220.690414 406.908813,223.840454 
z"/>
<path fill="#524C87" opacity="1.000000" stroke="none" 
	d="
M302.095520,220.115524 
	C294.036530,225.010101 282.642670,225.035324 274.543457,219.924881 
	C279.369263,217.375473 283.831879,214.969849 288.339752,212.652252 
	C291.734528,210.906906 295.552216,209.758545 298.546387,207.501648 
	C307.830536,200.503540 317.847534,203.362579 328.651001,204.477310 
	C319.443512,209.901642 310.930603,214.916763 302.095520,220.115524 
z"/>
<path fill="#514B87" opacity="1.000000" stroke="none" 
	d="
M25.767189,174.237350 
	C28.862833,175.354553 31.694510,177.758423 34.586658,177.833527 
	C49.056236,178.209244 63.541660,177.974548 78.477318,178.012726 
	C68.583199,183.998367 58.233269,189.925720 47.961781,195.808167 
	C40.084663,189.983017 31.456293,183.602325 22.549641,177.015839 
	C23.278805,176.388367 24.404957,175.419296 25.767189,174.237350 
z"/>
<path fill="#534D88" opacity="1.000000" stroke="none" 
	d="
M416.075989,183.034363 
	C424.717072,181.726410 432.901093,180.117584 441.162628,179.396530 
	C444.135986,179.137024 447.474915,180.640274 450.323822,182.010834 
	C453.681183,183.625992 456.687805,185.970123 460.434753,188.375854 
	C448.424042,190.637802 437.389679,192.741684 426.337585,194.747696 
	C425.463013,194.906433 424.344238,194.599045 423.544250,194.145828 
	C418.500641,191.288528 413.515076,188.328720 407.496246,184.809906 
	C410.797058,184.111267 413.223297,183.597733 416.075989,183.034363 
z"/>
<path fill="#514B87" opacity="1.000000" stroke="none" 
	d="
M454.852875,210.876358 
	C444.858490,214.856400 439.913483,208.009872 433.827423,201.740845 
	C436.161346,201.115891 438.081879,200.439835 440.060181,200.101669 
	C446.438843,199.011307 453.017700,198.667328 459.190308,196.891708 
	C469.505585,193.924362 474.835419,199.621338 479.868988,207.402740 
	C471.509369,208.565704 463.397736,209.694183 454.852875,210.876358 
z"/>
<path fill="#514B86" opacity="1.000000" stroke="none" 
	d="
M205.005173,216.005051 
	C204.937164,215.520554 204.957458,215.002563 204.788239,214.556458 
	C200.386169,202.949982 200.382767,202.951263 208.303055,191.707764 
	C212.586319,193.373199 216.997696,195.088440 221.771011,197.275101 
	C222.417007,197.854752 222.701065,197.962967 222.985123,198.071182 
	C222.985123,198.071182 222.953354,198.003647 222.918762,198.017365 
	C223.515137,201.075577 224.029388,204.150467 224.812500,207.155304 
	C225.490356,209.756241 225.216965,211.458237 222.321365,212.561600 
	C217.373764,214.446884 212.577942,216.730499 207.351562,218.598206 
	C206.783661,217.916092 206.582565,217.482590 206.178497,216.811310 
	C205.639740,216.363647 205.303940,216.153778 204.960434,215.969788 
	C204.952713,215.995667 205.005173,216.005051 205.005173,216.005051 
z"/>
<path fill="#FECE2D" opacity="1.000000" stroke="none" 
	d="
M185.929230,204.816147 
	C185.291229,213.777344 180.217545,219.736740 173.273407,224.840561 
	C172.163361,224.200729 171.618042,223.612885 171.072723,223.025055 
	C174.958145,215.633636 176.649017,208.164474 171.685303,200.193588 
	C170.915314,198.052689 170.331757,196.184402 169.827545,193.521347 
	C170.654404,191.463272 171.401932,190.199982 172.532074,188.971039 
	C174.979019,189.397858 177.043335,189.790329 179.416962,190.403687 
	C182.201782,191.418854 184.677307,192.213120 187.152863,193.007385 
	C186.668304,195.760223 186.183746,198.513062 185.505432,201.860504 
	C185.427841,202.932159 185.543976,203.409180 185.660126,203.886215 
	C185.726379,204.091095 185.792648,204.295990 185.929230,204.816147 
z"/>
<path fill="#524C87" opacity="1.000000" stroke="none" 
	d="
M235.184158,218.851929 
	C235.219315,217.511612 235.435333,216.579636 235.795364,215.386383 
	C242.807007,212.379211 249.674652,209.633331 256.891632,206.747772 
	C258.195251,210.764633 259.401825,214.482483 260.708588,218.509033 
	C253.171967,223.058502 245.609634,227.623505 237.585876,232.467026 
	C236.771622,227.624908 236.068314,223.442596 235.184158,218.851929 
z"/>
<path fill="#544E89" opacity="1.000000" stroke="none" 
	d="
M376.587891,184.117477 
	C368.676971,187.167618 360.629913,189.259338 353.589050,193.164978 
	C344.530151,198.190063 335.514862,197.357391 325.781708,195.509811 
	C326.732117,194.927841 327.514526,194.270767 328.416290,193.923889 
	C338.334747,190.108658 348.372772,186.582703 358.168457,182.477386 
	C364.759125,179.715286 370.826416,181.319061 377.041412,183.257614 
	C377.117798,183.281464 377.210480,183.481293 377.183228,183.560196 
	C377.131500,183.710083 376.998322,183.831848 376.587891,184.117477 
z"/>
<path fill="#534D88" opacity="1.000000" stroke="none" 
	d="
M297.263977,199.190765 
	C287.493103,204.178314 278.045654,208.972382 267.828125,214.157211 
	C266.838531,210.625488 265.886383,207.227448 264.696381,202.980484 
	C273.434418,199.672516 281.916748,196.036743 290.717712,193.511520 
	C292.348663,193.043549 295.264557,197.053848 297.263977,199.190765 
z"/>
<path fill="#534C86" opacity="1.000000" stroke="none" 
	d="
M237.278656,205.912598 
	C235.367996,200.809158 233.811859,195.612473 232.155350,190.143295 
	C239.177139,188.548553 246.299271,187.226318 254.036011,185.789978 
	C254.695633,189.937912 255.302765,193.755798 255.951248,197.833771 
	C249.701920,200.558105 243.667557,203.188736 237.278656,205.912598 
z"/>
<path fill="#F9CB31" opacity="1.000000" stroke="none" 
	d="
M172.149475,188.936691 
	C171.401932,190.199982 170.654404,191.463272 169.857758,193.158066 
	C165.010391,191.040085 154.672745,194.134384 151.909286,199.117691 
	C150.433426,201.779083 149.341904,204.653610 147.220642,207.380127 
	C147.220642,202.748322 147.220642,198.116516 147.454163,192.723724 
	C149.470200,186.960861 151.252731,181.959000 153.035248,176.957153 
	C153.035263,176.957153 153.001984,176.994247 153.294434,177.139816 
	C159.774399,181.169159 165.961945,185.052917 172.149475,188.936691 
z"/>
<path fill="#5C5788" opacity="1.000000" stroke="none" 
	d="
M280.590149,146.100983 
	C280.244537,144.267441 280.238922,142.483444 280.297180,140.252777 
	C286.332581,137.554230 292.304169,135.302338 298.693085,132.893066 
	C300.333527,136.672714 301.962097,140.425110 304.009186,145.141678 
	C297.674530,147.509354 291.610046,149.776062 285.476532,152.068542 
	C283.819824,149.912003 282.374969,148.031265 280.590149,146.100983 
z"/>
<path fill="#534D88" opacity="1.000000" stroke="none" 
	d="
M324.730133,132.962250 
	C320.258545,135.841446 316.061615,138.518341 311.406464,141.487503 
	C309.351349,136.935577 307.473389,132.776016 305.519409,128.448120 
	C310.472900,124.671928 315.184937,121.079803 320.414124,117.093460 
	C322.014923,122.556549 323.509857,127.658249 324.730133,132.962250 
z"/>
<path fill="#524C87" opacity="1.000000" stroke="none" 
	d="
M315.564484,148.450714 
	C320.441406,145.361526 325.085999,142.540451 329.880554,139.628281 
	C333.232483,142.718948 336.470612,145.704651 340.649536,149.557846 
	C334.222382,152.350891 328.223175,155.175232 322.012268,157.411728 
	C321.128876,157.729828 318.959106,155.389542 317.854248,153.925308 
	C316.714783,152.415253 316.148956,150.472351 315.564484,148.450714 
z"/>
<path fill="#544F86" opacity="1.000000" stroke="none" 
	d="
M329.803284,178.399429 
	C332.679016,177.623535 335.382111,177.155930 338.553772,176.313614 
	C341.065613,176.299805 343.108887,176.660736 345.152161,177.021667 
	C345.615326,177.299194 346.078461,177.576736 346.782135,177.979630 
	C335.356689,182.881042 323.792023,187.936050 311.952332,192.233459 
	C309.057465,193.284210 305.261871,191.853378 301.880371,191.563522 
	C301.842346,190.874191 301.804291,190.184875 301.766235,189.495544 
	C311.054352,185.899597 320.342468,182.303665 329.803284,178.399429 
z"/>
<path fill="#544E89" opacity="1.000000" stroke="none" 
	d="
M285.108826,186.978546 
	C277.947845,189.687637 271.157013,192.278290 263.806519,195.082458 
	C263.202026,191.372009 262.680359,188.169952 262.057159,184.344467 
	C269.648315,182.492798 277.129974,180.667847 286.154297,178.466599 
	C285.885681,181.805176 285.682312,184.332657 285.108826,186.978546 
z"/>
<path fill="#544E89" opacity="1.000000" stroke="none" 
	d="
M360.457153,171.920471 
	C360.013153,170.545654 360.000549,169.141327 360.041687,167.316635 
	C363.529877,165.677368 367.027435,164.609924 370.386597,163.210327 
	C379.441132,159.437775 388.534576,158.399200 398.439606,163.006271 
	C385.644775,166.033554 373.266663,168.962234 360.457153,171.920471 
z"/>
<path fill="#534D88" opacity="1.000000" stroke="none" 
	d="
M307.023712,163.752258 
	C301.259094,163.748077 295.494446,163.743881 289.267273,163.633026 
	C288.711975,162.221741 288.619171,160.917130 288.502930,159.282471 
	C294.533691,157.084457 300.726471,154.827393 307.214844,152.462601 
	C308.805511,154.800491 310.488037,157.027908 311.830475,159.444305 
	C312.114258,159.955124 311.153442,161.157394 310.156189,162.145508 
	C308.705475,162.750717 307.864594,163.251495 307.023712,163.752258 
z"/>
<path fill="#DED8D3" opacity="1.000000" stroke="none" 
	d="
M187.374023,193.006378 
	C184.677307,192.213120 182.201782,191.418854 179.732941,190.198822 
	C179.256973,188.071121 178.774292,186.369171 178.291611,184.667221 
	C181.190048,184.999512 184.088486,185.331787 187.502808,186.117355 
	C189.417694,186.877899 190.873764,187.603821 192.206161,187.422287 
	C199.205856,186.468536 206.174301,185.285324 213.153595,184.181793 
	C206.589630,186.480438 200.036087,188.809677 193.454315,191.056122 
	C191.816437,191.615173 190.087250,191.906708 188.218735,192.657501 
	C188.037430,192.993820 187.595215,193.005356 187.374023,193.006378 
z"/>
<path fill="#544F86" opacity="1.000000" stroke="none" 
	d="
M245.534607,179.256409 
	C239.742630,177.773285 238.832916,173.312958 238.209076,168.278976 
	C238.706268,167.821747 239.199646,167.757599 239.692291,167.688034 
	C249.993057,166.233353 250.532440,166.659714 252.018143,177.907928 
	C250.022675,178.328415 247.981308,178.758560 245.534607,179.256409 
z"/>
<path fill="#544F86" opacity="1.000000" stroke="none" 
	d="
M130.738800,144.953613 
	C127.011086,147.958481 122.874306,150.861481 118.436340,153.900024 
	C114.603546,151.146637 111.071938,148.257706 106.908325,144.851761 
	C115.244843,144.851761 122.787300,144.851761 130.738800,144.953613 
z"/>
<path fill="#544E89" opacity="1.000000" stroke="none" 
	d="
M402.613129,170.132721 
	C403.058075,172.269257 403.124878,174.507935 403.169678,177.158295 
	C395.874542,179.757812 388.875854,179.205994 381.888702,175.253693 
	C388.829559,173.541595 395.532288,171.888229 402.613129,170.132721 
z"/>
<path fill="#534D88" opacity="1.000000" stroke="none" 
	d="
M265.442749,163.981430 
	C267.119690,167.051041 268.411957,170.186523 269.864197,173.626877 
	C267.017670,174.705154 264.011139,175.478561 260.607452,176.354156 
	C259.483582,172.560013 258.483734,169.184601 257.422821,165.602966 
	C260.255402,165.025833 262.656738,164.536575 265.442749,163.981430 
z"/>
<path fill="#5A5284" opacity="1.000000" stroke="none" 
	d="
M143.891159,161.992767 
	C142.555786,156.606888 141.220428,151.220993 139.952637,145.402237 
	C141.496750,145.228210 142.973251,145.487030 144.813934,145.872742 
	C146.458557,150.772675 147.739029,155.545731 148.727264,160.810394 
	C146.920410,161.532257 145.405792,161.762512 143.891159,161.992767 
z"/>
<path fill="#555177" opacity="1.000000" stroke="none" 
	d="
M338.549469,166.473572 
	C336.836212,161.536911 332.591522,164.620483 329.161804,163.530487 
	C333.972107,161.055786 339.244904,158.707108 344.828735,156.178421 
	C345.233521,158.461411 345.327271,160.924393 344.897522,163.794891 
	C342.432526,164.959457 340.490997,165.716522 338.549469,166.473572 
z"/>
<path fill="#5A5284" opacity="1.000000" stroke="none" 
	d="
M122.221573,157.716614 
	C128.930222,153.389160 132.992950,159.225754 138.062775,162.496994 
	C137.732147,162.863892 137.206909,162.836197 136.756073,163.005997 
	C130.575958,165.333801 126.034904,163.083618 122.221573,157.716614 
z"/>
<path fill="#5A5284" opacity="1.000000" stroke="none" 
	d="
M152.690948,177.039642 
	C151.252731,181.959000 149.470200,186.960861 147.508255,192.227692 
	C146.020874,190.131607 144.712906,187.770554 143.195740,185.132355 
	C146.106583,182.277527 149.226608,179.699829 152.690948,177.039642 
z"/>
<path fill="#5A5284" opacity="1.000000" stroke="none" 
	d="
M206.381470,217.049103 
	C206.582565,217.482590 206.783661,217.916092 206.989166,218.595093 
	C204.755951,220.076157 202.518326,221.311691 199.606949,222.919250 
	C198.583740,218.640182 197.754013,215.170242 196.973953,211.286057 
	C199.470825,212.717377 201.918030,214.562943 204.685211,216.206772 
	C205.005173,216.005051 204.952713,215.995667 204.969208,216.346542 
	C205.450974,216.814651 205.916214,216.931885 206.381470,217.049103 
z"/>
<path fill="#5A5284" opacity="1.000000" stroke="none" 
	d="
M235.599136,150.253204 
	C235.304977,153.389694 234.596725,156.409073 233.241455,159.700073 
	C231.022003,159.956253 229.449615,159.940826 227.877213,159.925385 
	C228.772476,156.873245 229.667740,153.821106 230.730591,150.465424 
	C232.327148,150.153305 233.756088,150.144714 235.599136,150.253204 
z"/>
<path fill="#544E89" opacity="1.000000" stroke="none" 
	d="
M418.366455,174.861633 
	C417.968872,172.878677 417.953796,170.820450 418.006989,168.322525 
	C420.120361,168.527634 422.165497,169.172424 424.560242,169.867645 
	C424.968201,171.003845 425.026611,172.089630 425.018921,173.576797 
	C422.884857,174.247574 420.816925,174.516968 418.366455,174.861633 
z"/>
<path fill="#5A5284" opacity="1.000000" stroke="none" 
	d="
M265.815643,151.590546 
	C263.071045,150.255112 260.391174,148.465485 257.475708,146.478149 
	C259.785553,145.752625 262.331055,145.224808 265.272949,144.671417 
	C265.739716,146.809357 265.810059,148.972855 265.815643,151.590546 
z"/>
<path fill="#555177" opacity="1.000000" stroke="none" 
	d="
M307.425842,163.857574 
	C307.864594,163.251495 308.705475,162.750717 309.823944,162.143829 
	C310.144531,162.382553 310.187531,162.727417 310.232513,163.343826 
	C309.432343,163.731216 308.630157,163.847061 307.425842,163.857574 
z"/>
<path fill="#E3DCD3" opacity="1.000000" stroke="none" 
	d="
M139.343079,142.822174 
	C138.951523,143.025162 138.390274,143.007675 137.410950,142.964813 
	C136.981110,142.671555 136.969330,142.403671 136.959869,141.731537 
	C137.699280,141.752090 138.436325,142.176895 139.343079,142.822174 
z"/>
<path fill="#555177" opacity="1.000000" stroke="none" 
	d="
M281.291504,163.237091 
	C280.933960,163.109497 280.547852,162.725357 280.265808,162.053284 
	C280.667572,162.170425 280.965271,162.575500 281.291504,163.237091 
z"/>
<path fill="#F9CB31" opacity="1.000000" stroke="none" 
	d="
M185.726578,203.593781 
	C185.543976,203.409180 185.427841,202.932159 185.436905,202.295303 
	C185.639099,202.524109 185.716064,202.912735 185.726578,203.593781 
z"/>
<path fill="#FDCF32" opacity="1.000000" stroke="none" 
	d="
M209.030136,58.031822 
	C209.138367,57.990807 209.226074,57.930698 209.139954,57.923946 
	C208.966125,57.977306 209.009598,58.012726 209.030136,58.031822 
z"/>
<path fill="#5A5284" opacity="1.000000" stroke="none" 
	d="
M178.051041,184.507477 
	C178.774292,186.369171 179.256973,188.071121 179.423660,189.977936 
	C177.043335,189.790329 174.979019,189.397858 172.532074,188.971039 
	C165.961945,185.052917 159.774399,181.169159 153.275497,177.156006 
	C151.502197,174.917938 150.040253,172.809250 148.867325,170.275269 
	C150.801239,169.577728 152.446121,169.305496 154.091019,169.033264 
	C160.545059,176.387680 168.132187,181.987137 178.051041,184.507477 
z"/>
<path fill="#5C5788" opacity="1.000000" stroke="none" 
	d="
M213.444061,184.087418 
	C206.174301,185.285324 199.205856,186.468536 192.206161,187.422287 
	C190.873764,187.603821 189.417694,186.877899 187.952286,186.252686 
	C196.935150,185.262619 205.502182,183.083511 213.609146,178.062424 
	C214.802414,179.572906 215.483765,180.887970 216.165115,182.203049 
	C215.354919,182.799713 214.544739,183.396393 213.444061,184.087418 
z"/>
<path fill="#DED8D3" opacity="1.000000" stroke="none" 
	d="
M153.978607,168.706238 
	C152.446121,169.305496 150.801239,169.577728 148.738388,169.934402 
	C146.881241,167.576828 145.442062,165.134796 143.947021,162.342773 
	C145.405792,161.762512 146.920410,161.532257 148.803192,161.197815 
	C150.736282,163.522141 152.301239,165.950668 153.978607,168.706238 
z"/>
<path fill="#E3DCD3" opacity="1.000000" stroke="none" 
	d="
M227.637024,160.171204 
	C229.449615,159.940826 231.022003,159.956253 233.071655,159.996094 
	C232.335403,162.601562 231.121933,165.182617 229.153595,167.938492 
	C226.690948,168.091202 224.983139,168.069061 223.275345,168.046936 
	C224.649170,165.503632 226.022995,162.960327 227.637024,160.171204 
z"/>
<path fill="#5C5788" opacity="1.000000" stroke="none" 
	d="
M223.105209,168.249039 
	C224.983139,168.069061 226.690948,168.091202 228.906586,168.169830 
	C227.275742,171.023453 225.137039,173.820541 222.612457,176.468384 
	C221.469681,175.034668 220.712814,173.750198 219.955933,172.465744 
	C220.948975,171.127533 221.942032,169.789337 223.105209,168.249039 
z"/>
<path fill="#DED8D3" opacity="1.000000" stroke="none" 
	d="
M219.617523,172.563721 
	C220.712814,173.750198 221.469681,175.034668 222.371918,176.667267 
	C222.495117,177.185944 222.472961,177.356476 222.444824,177.784637 
	C220.562943,179.364456 218.687027,180.686600 216.488113,182.105896 
	C215.483765,180.887970 214.802414,179.572906 213.940170,177.926971 
	C215.599228,175.951309 217.439163,174.306488 219.617523,172.563721 
z"/>
<path fill="#D9D5D5" opacity="1.000000" stroke="none" 
	d="
M461.000000,134.690826 
	C453.714111,134.690826 446.928131,134.690826 439.878662,134.690826 
	C439.878662,129.640076 439.878662,125.051109 439.878662,120.258148 
	C454.162140,120.258148 468.259796,120.258148 482.685120,120.258148 
	C482.685120,124.860817 482.685120,129.440414 482.685120,134.690842 
	C475.703339,134.690842 468.601593,134.690842 461.000000,134.690826 
z"/>
<path fill="#D9D5D5" opacity="1.000000" stroke="none" 
	d="
M364.150513,120.059128 
	C377.251678,120.059090 389.868774,120.059090 402.841309,120.059090 
	C402.841309,124.854019 402.841309,129.408508 402.841309,134.327927 
	C388.731445,134.327927 374.552216,134.327927 359.886078,134.327927 
	C359.886078,130.270126 359.658447,126.299881 360.058228,122.393852 
	C360.149506,121.501877 362.406311,120.831528 364.150513,120.059128 
z"/>
<path fill="#D9D5D5" opacity="1.000000" stroke="none" 
	d="
M338.391418,166.861847 
	C340.490997,165.716522 342.432526,164.959457 344.711182,164.114197 
	C345.135986,168.051163 345.223602,172.076324 345.231689,176.561584 
	C343.108887,176.660736 341.065613,176.299805 338.641449,175.891968 
	C338.251495,172.980072 338.242462,170.115097 338.391418,166.861847 
z"/>
<path fill="#D9D5D5" opacity="1.000000" stroke="none" 
	d="
M59.485813,154.575653 
	C64.025818,157.326263 68.244484,160.203796 72.638062,163.341888 
	C68.582367,163.575912 64.351753,163.549393 59.411758,163.271942 
	C56.857738,162.319046 55.013088,161.617111 53.168442,160.915176 
	C55.167114,158.844315 57.165791,156.773453 59.485813,154.575653 
z"/>
<path fill="#504A83" opacity="1.000000" stroke="none" 
	d="
M52.843452,161.055038 
	C55.013088,161.617111 56.857738,162.319046 58.969223,163.204559 
	C57.131828,163.483612 55.025837,163.633942 52.926838,163.566574 
	C52.765503,163.561386 52.653435,162.021454 52.843452,161.055038 
z"/>
<path fill="#F9CB31" opacity="1.000000" stroke="none" 
	d="
M170.802338,223.208771 
	C171.618042,223.612885 172.163361,224.200729 172.961884,224.954224 
	C171.748795,226.112549 170.282532,227.105209 168.399292,228.042038 
	C167.982300,227.986191 167.822647,227.826126 167.822647,227.826126 
	C168.725739,226.348236 169.628845,224.870346 170.802338,223.208771 
z"/>
<path fill="#F9CB31" opacity="1.000000" stroke="none" 
	d="
M168.061157,228.067184 
	C167.925217,228.352585 167.710434,228.556992 167.495636,228.761383 
	C167.455826,228.507721 167.416016,228.254059 167.599426,227.913269 
	C167.822647,227.826126 167.982300,227.986191 168.061157,228.067184 
z"/>
<path fill="#E0DCDC" opacity="1.000000" stroke="none" 
	d="
M222.932770,197.833008 
	C222.701065,197.962967 222.417007,197.854752 222.080322,197.473877 
	C222.384216,197.175842 222.668457,197.307053 222.932770,197.833008 
z"/>
<path fill="#FBCC31" opacity="1.000000" stroke="none" 
	d="
M206.178497,216.811310 
	C205.916214,216.931885 205.450974,216.814651 204.976929,216.320663 
	C205.303940,216.153778 205.639740,216.363647 206.178497,216.811310 
z"/>
</svg>